<?xml version="1.0" encoding="UTF-8"?><svg id="a" xmlns="http://www.w3.org/2000/svg" viewBox="0 0 389.39 393.92"><defs><style>.b{fill:#de9ec7;}.c{fill:#1d1d1b;font-family:Dosis-SemiBold, Dosis;font-size:93px;}.d{fill:#1c0f1d;}</style></defs><path class="b" d="M119.59,11.39h149.14c61.84,0,112.04,50.2,112.04,112.04V384c0,.34-.28,.62-.62,.62H119.59c-61.84,0-112.04-50.2-112.04-112.04V123.43C7.55,61.6,57.75,11.39,119.59,11.39Z"/><g><path class="d" d="M209.43,207.1c0-29.64-28.14-33.38-43.89-29.32-22.53,5.8-25.41,27.6-26.17,34.58-1.04,9.57,1.95,36.35,23.58,40.51,21.63,4.16,28.83-5.67,28.83-5.67l.06,9.35c.04,5.77,2.12,11.37,5.99,15.65,6.1,6.76,14.32,14.12,14.32,14.12-4.69-7.34-4.04-23.94-4.04-23.94l.62,5.72c.83-3.74,.7-46.93,.7-60.99Zm-17.62,13.33c0,4.62-1.98,9.02-5.44,12.08-1.77,1.56-3.8,2.79-6.01,3.61l-.99,.37c-4.38,1.64-9.26,1.29-13.36-.97-2.8-1.54-5.02-3.94-6.34-6.85-3.12-6.88-3.7-14.64-1.64-21.91l.33-1.18c1.13-4,3.9-7.34,7.62-9.2,3.82-1.91,8.29-2.08,12.24-.45l1.78,.73c2.23,.92,4.23,2.31,5.85,4.09,3.83,4.18,5.95,9.65,5.95,15.32v4.35Z"/><path class="d" d="M275.43,233.84l.86-1.59c1.91-3.55,1.96-7.81,.12-11.4,0,0-4.51,16.53-22.21,16.72-18.62,.2-17.51-22.45-17.51-22.45l18.25,1.16c5.34,.34,10.65-.81,15.35-3.3,1.4-.74,2.59-1.85,3.34-3.25,2.57-4.85,2.92-10.59,.84-15.65-3.33-8.1-11.05-18.52-28.65-17.6-28.5,1.49-33.27,33.04-28.68,50.36,3.44,12.99,13.78,25.5,33.31,26.9,1.6,.11,3.21,.11,4.82,.03,8.61-.43,16.66-3.59,23.3-8.7,7.5-5.76,10.86-15.41,13.05-24.61l-2,3.6c-2.38,4.28-6.27,7.67-11,8.94l-.11,.03-3.09,.81Zm-36.88-33.26c1.04-3.65,4.37-6.2,8.16-6.23,.07,0,.14,0,.21,0,3.45,0,6.11,3.05,5.64,6.46l-.31,2.29-13.88-1.86,.19-.66Z"/><path class="d" d="M246.68,282.61c-3.32-.92-7.71-5.81-7.71-5.81,2.03,2.73,5.12,5.07,8.28,6.96,8.54,5.11,19.08,6.05,28.13,1.92,34.94-15.94,51.47-79.71,51.47-79.71,0,0,1.08,33.42,1.94,49.03s11.19,34.64,11.19,34.64c-2.37-7.56,0-34.64,0-34.64,.43,3.17,4.31,7.81,4.31,7.81-3.44-13.9-3.44-85.38-2.8-96.11,.65-10.73,2.8-19.03,2.8-19.03,.43-7.32-31.21-6.34-49.62,1.46-18.4,7.81-22.92,26.83-15.61,41.47,7.32,14.64,30.79,16.48,30.79,16.48-39.98,99.68-70.33,64.25-70.33,64.25,2.11,5.88,5,8.54,5,8.54l-3.71-3.42c2.53,4.45,5.87,6.16,5.87,6.16Zm56.49-90.28c-6.03-8.8-12.05-26.1,5.81-34.42,0,0,5.81-1.95,14.21-1.71l3.66,39.03s-17.65,5.89-23.68-2.91Z"/><path class="d" d="M50.11,81.2s-5.29-1.74-5,0,6.43,10.46,6.43,10.46c0,0,11.57,188.65-3.22,223.92,0,0,31.87-13.51,39.3-88.31,0,0,25.52,45.59,103,75.25,.91,1.96-81.94-78.68-92.91-94.1,0,0,42.32-13.66,49.61-59.3,0,0,7.72-28.49-3.86-28.78,0,0-3.43-.44-9.93,13.42-2.34,4.99-22.66,45.29-42.39,53.14,0,0,12.44-73.83,11.79-77.17-.64-3.34-.64-10.46-14.37-15.55-13.72-5.09-38.45-12.98-38.45-12.98Z"/></g><text class="c" transform="translate(264.33 364.98)"><tspan x="0" y="0">.da</tspan></text></svg>